<svg width="344.6" height="525.373" xmlns="http://www.w3.org/2000/svg"><g style="display:inline"><path d="M279.33 160.807c4.292-1.11 8.604-2.15 12.902-3.233 9.763-9.528 20.147-18.326 31.635-25.537a135.165 135.165 0 0 0 1.009-16.422c0-74.668-60.994-135.2-136.234-135.2-75.24 0-136.234 60.532-136.234 135.2 0 18.716 3.834 36.544 10.762 52.752 6.317-1.624 13.712-.611 19.446 2.705 8.142 1.202 15.989 3.417 23.72 6.568a416.656 416.656 0 0 1 16.894 7.335c2.07.953 4.136 1.916 6.212 2.858.8.364 1.605.723 2.407 1.082 7.894 2.367 15.323 5.782 23.436 7.648 2.133.492 4.278.925 6.433 1.304-.956-.343-.541-.758 2.394.352 3.585.325 7.157.609 10.763.693 17.972.416 36.11-.77 53.958-2.786 1.61-.18 3.228-.349 4.84-.548.286-.045.797-.125 1.624-.249.912-.137 1.824-.267 2.737-.405 4.211-.637 8.412-1.34 12.6-2.117a173.51 173.51 0 0 0 3.441-.676c.761-14.155 11.36-27.733 25.255-31.324" style="fill:#cf9040;fill-opacity:1;fill-rule:nonzero;stroke:none;stroke-width:.118646" transform="translate(-9.825 134.394)"/><path d="M290.59 131.4c-38.142 29.197-41.517 38.445-82.253 43.985v51.083c16.061-5.818 30.969-13.941 44.266-23.751 3.334-2.448 6.546-5.069 9.694-7.695 3.065-2.762 6.174-5.405 9.021-8.361 2.928-2.84 5.706-5.835 8.365-8.92 2.707-3.024 5.21-6.248 7.658-9.478 2.471-3.206 4.695-6.644 6.906-10.036 1.111-1.69 2.133-3.464 3.146-5.239 1.024-1.756 1.997-3.56 2.965-5.348a164.347 164.347 0 0 0 5.22-11.199c2.117-5.508-6.76-11.34-14.987-5.04" style="fill:#6f5244;fill-opacity:1;fill-rule:nonzero;stroke:none;stroke-width:.118646" transform="translate(-9.825 134.394)"/><path d="m290.59 131.4-.362-.468c-19.09 14.614-29.479 24.226-40.108 30.831-10.626 6.603-21.53 10.268-41.864 13.037l-.514.07v52.442l.8-.29c16.117-5.837 31.074-13.988 44.417-23.831l.013-.01-.014.011c3.349-2.46 6.57-5.088 9.722-7.717l.008-.007.008-.008c3.057-2.754 6.176-5.406 9.053-8.39l-.431-.408.416.423c2.942-2.854 5.733-5.864 8.4-8.96l-.452-.383.445.392c2.727-3.045 5.238-6.282 7.69-9.516l-.004.004c2.49-3.23 4.721-6.683 6.933-10.072v.003c1.122-1.71 2.151-3.495 3.164-5.27l-.003.003c1.031-1.768 2.005-3.577 2.974-5.365l.004-.006.004-.006a164.382 164.382 0 0 0 5.236-11.239l.004-.009.003-.008c.241-.625.358-1.263.357-1.89-.001-1.819-.965-3.502-2.482-4.71-1.521-1.212-3.612-1.974-5.96-1.974-2.456 0-5.19.838-7.82 2.855l.363.468.363.467c2.445-1.87 4.91-2.606 7.094-2.608 2.088 0 3.92.68 5.214 1.712 1.296 1.035 2.038 2.4 2.037 3.79 0 .484-.087.974-.278 1.47l.556.21-.549-.228a163.482 163.482 0 0 1-5.2 11.159l.53.268-.524-.28c-.97 1.788-1.939 3.587-2.957 5.333l-.003.004c-1.011 1.773-2.028 3.536-3.125 5.206l-.001.003c-2.213 3.392-4.43 6.819-6.88 9.997l-.003.004c-2.445 3.227-4.94 6.438-7.629 9.442l-.003.003-.004.006c-2.648 3.073-5.415 6.056-8.327 8.88l-.007.008-.007.007c-2.822 2.929-5.917 5.563-8.992 8.332l.4.438-.383-.453c-3.145 2.624-6.347 5.236-9.664 7.672l-.001.001c-13.252 9.777-28.111 17.872-44.115 23.67l.204.555h.596v-51.082h-.596l.08.585c20.402-2.77 31.554-6.5 42.335-13.206 10.777-6.703 21.147-16.314 40.202-30.898l-.363-.466" style="fill:#000;fill-opacity:1;fill-rule:nonzero;stroke:none;stroke-width:.118646" transform="translate(-9.825 134.394)"/><path d="M302.91 127.932c-38.145 29.198-41.52 38.447-82.255 43.987v51.08c16.061-5.815 30.969-13.94 44.266-23.75 3.334-2.447 6.544-5.067 9.693-7.694 3.067-2.762 6.175-5.406 9.023-8.36 2.927-2.84 5.706-5.837 8.364-8.92 2.707-3.025 5.21-6.25 7.658-9.479 2.47-3.205 4.695-6.644 6.907-10.036 1.11-1.689 2.133-3.464 3.145-5.238 1.024-1.757 1.996-3.561 2.966-5.349a164.591 164.591 0 0 0 5.219-11.197c2.117-5.51-6.76-11.341-14.987-5.044" style="fill:#6f5244;fill-opacity:1;fill-rule:nonzero;stroke:none;stroke-width:.118646" transform="translate(-9.825 134.394)"/><path d="m302.91 127.932-.365-.467c-19.088 14.614-29.477 24.227-40.107 30.832-10.627 6.602-21.53 10.267-41.864 13.035l-.515.071v52.442l.8-.29c16.117-5.836 31.076-13.99 44.419-23.83h-.001c3.349-2.46 6.568-5.088 9.72-7.718l.009-.007.008-.007c3.058-2.755 6.177-5.406 9.052-8.39l-.43-.409.417.424c2.942-2.856 5.732-5.864 8.4-8.958l-.452-.385.444.393c2.726-3.046 5.24-6.283 7.69-9.516l-.004.004c2.49-3.231 4.722-6.684 6.934-10.074v.001c1.122-1.709 2.15-3.494 3.164-5.27l-.004.006c1.031-1.768 2.006-3.578 2.975-5.365l.004-.006.003-.006a164.058 164.058 0 0 0 5.238-11.238l.004-.008.004-.009c.24-.626.356-1.265.356-1.89-.001-1.82-.965-3.503-2.482-4.712-1.521-1.212-3.612-1.973-5.96-1.973-2.456 0-5.189.838-7.821 2.854l.364.467.364.468c2.445-1.87 4.91-2.607 7.093-2.607 2.087 0 3.92.68 5.213 1.711 1.297 1.036 2.04 2.4 2.038 3.792 0 .482-.088.973-.278 1.468l.557.212-.55-.23a163.486 163.486 0 0 1-5.2 11.16l.53.267-.523-.28c-.97 1.789-1.94 3.589-2.958 5.333l-.003.004c-1.01 1.773-2.028 3.537-3.126 5.207v.003c-2.214 3.392-4.429 6.817-6.88 9.997l-.003.004c-2.446 3.226-4.94 6.438-7.628 9.441l-.004.004-.004.004c-2.65 3.073-5.416 6.056-8.328 8.882l-.007.007-.007.007c-2.821 2.927-5.918 5.561-8.993 8.33l.4.44-.383-.453c-3.146 2.624-6.346 5.236-9.663 7.672-13.254 9.776-28.112 17.874-44.116 23.669l.203.556h.596v-51.082h-.596l.081.585c20.402-2.77 31.555-6.5 42.335-13.206 10.778-6.703 21.148-16.313 40.202-30.897l-.363-.468" style="fill:#000;fill-opacity:1;fill-rule:nonzero;stroke:none;stroke-width:.118646" transform="translate(-9.825 134.394)"/><path d="M312.285 126.109c-38.144 29.197-41.518 38.445-82.255 43.985v51.082c16.063-5.817 30.97-13.94 44.268-23.751 3.334-2.448 6.543-5.068 9.692-7.695 3.067-2.76 6.176-5.406 9.023-8.36 2.928-2.84 5.706-5.836 8.365-8.92 2.707-3.025 5.21-6.249 7.657-9.479 2.472-3.205 4.696-6.644 6.907-10.035 1.112-1.69 2.133-3.464 3.146-5.24 1.024-1.756 1.997-3.56 2.965-5.346 1.875-3.65 3.611-7.39 5.22-11.2 2.117-5.508-6.76-11.34-14.988-5.041" style="fill:#6f5244;fill-opacity:1;fill-rule:nonzero;stroke:none;stroke-width:.118646" transform="translate(-9.825 134.394)"/><path d="m312.285 126.109-.365-.469c-19.088 14.614-29.477 24.227-40.106 30.832-10.626 6.602-21.529 10.267-41.865 13.037l-.514.07v52.442l.8-.29c16.118-5.837 31.077-13.989 44.42-23.83h-.002c3.35-2.46 6.569-5.09 9.721-7.719l.008-.007.008-.007c3.059-2.754 6.178-5.406 9.053-8.39l-.43-.408.417.423c2.942-2.856 5.732-5.864 8.4-8.958l-.453-.384.445.392c2.726-3.046 5.238-6.282 7.689-9.516l-.004.004c2.491-3.231 4.723-6.683 6.935-10.072h-.001c1.123-1.709 2.152-3.495 3.164-5.271l-.004.006c1.032-1.768 2.007-3.578 2.975-5.364l.004-.006.003-.006a164.358 164.358 0 0 0 5.238-11.239l.004-.008.004-.009c.241-.626.357-1.263.357-1.89-.001-1.82-.965-3.503-2.484-4.712-1.52-1.212-3.61-1.973-5.96-1.973-2.455 0-5.189.838-7.82 2.855l.364.468.363.466c2.445-1.868 4.91-2.606 7.094-2.607 2.087 0 3.92.68 5.214 1.713 1.297 1.035 2.039 2.398 2.038 3.79 0 .482-.089.973-.278 1.468l.556.212-.549-.228a163.743 163.743 0 0 1-5.2 11.158l.53.269-.524-.28c-.97 1.787-1.939 3.587-2.957 5.331l-.003.004c-1.011 1.773-2.028 3.538-3.126 5.208l-.001.001c-2.213 3.392-4.428 6.817-6.88 9.997l-.004.004c-2.446 3.227-4.937 6.438-7.627 9.441l-.004.004-.004.004c-2.648 3.073-5.415 6.055-8.327 8.881l-.007.007-.007.007c-2.822 2.927-5.918 5.563-8.993 8.33l.4.44-.384-.453c-3.144 2.624-6.345 5.236-9.662 7.673h-.001c-13.253 9.777-28.111 17.873-44.117 23.67l.204.555h.595v-51.083h-.595l.08.587c20.403-2.772 31.555-6.5 42.336-13.206 10.777-6.704 21.147-16.315 40.202-30.899l-.363-.467" style="fill:#000;fill-opacity:1;fill-rule:nonzero;stroke:none;stroke-width:.118646" transform="translate(-9.825 134.394)"/><path d="M51.649 126.833c19.201-6.949 38.323-2.166 49.03-.746 35.334 4.69 88.917 52.696 127.783 48.416 49.547-5.457 50.551-13.86 91.36-45.098 8.228-6.299 17.106-.467 14.987 5.042a164.575 164.575 0 0 1-5.218 11.198c-.968 1.788-1.941 3.592-2.965 5.348-1.013 1.774-2.035 3.55-3.147 5.24-2.212 3.39-4.434 6.83-6.907 10.035-2.447 3.23-4.95 6.454-7.656 9.479-2.659 3.084-5.437 6.079-8.365 8.92-2.847 2.955-5.956 5.598-9.023 8.36-3.148 2.626-6.358 5.247-9.693 7.694-13.333 9.838-28.286 17.981-44.4 23.801-8.04 2.93-16.347 5.336-24.84 7.067-8.487 1.752-17.132 2.972-25.843 3.457-17.411 1.043-35.026-.397-51.86-4.421-16.842-3.999-32.906-10.445-47.4-19.078-14.524-8.566-27.495-19.317-38.337-31.805-5.413-6.259-10.28-12.985-14.47-20.162-2.076-3.61-3.463-4.367-5.113-8.242-.017-.039-2.642-3.792-.797-8.878 4.175-11.511 17.413-13.65 22.874-15.627" style="fill:#6f5244;fill-opacity:1;fill-rule:nonzero;stroke:none;stroke-width:.118646" transform="translate(-9.825 134.394)"/><path d="M228.462 174.503c5.378-.687 10.745-1.46 16.073-2.428 5.331-.95 10.62-2.128 15.78-3.692 5.156-1.581 10.147-3.641 14.831-6.258 4.685-2.62 9.072-5.736 13.323-9.04 8.498-6.614 16.732-13.657 25.237-20.359l3.19-2.515c1.088-.832 2.067-1.674 3.3-2.51 2.39-1.595 5.387-2.699 8.505-2.297 1.54.196 3.066.78 4.338 1.764 1.27.975 2.255 2.39 2.664 3.99.208.796.27 1.63.192 2.445-.024.399-.121.832-.2 1.179-.085.344-.17.689-.27 1.028-.384 1.364-.876 2.68-1.416 3.958-2.229 5.064-4.879 9.747-7.554 14.49-1.384 2.398-2.91 4.615-4.386 6.89a111.654 111.654 0 0 1-4.744 6.672c-1.635 2.159-3.298 4.314-5.049 6.416-.867 1.056-1.794 2.091-2.659 3.095-.892 1.03-1.796 2.05-2.718 3.057-1.82 2.01-3.786 3.999-5.668 5.869-1.93 1.97-3.966 3.813-5.982 5.616-16.226 14.596-35.258 26.082-55.755 33.776a177.294 177.294 0 0 1-31.644 8.58c-10.771 1.936-21.739 2.826-32.674 2.749-21.873-.124-43.784-4.175-64.045-12.372-20.255-8.14-38.978-20.137-54.36-35.51-7.655-7.707-14.503-16.217-20.16-25.449-.705-1.155-1.399-2.315-2.068-3.492-.627-1.153-1.476-2.192-2.253-3.31-1.572-2.202-3-4.598-3.699-7.26-.703-2.654-.525-5.527.531-8.037 1.032-2.528 2.767-4.679 4.7-6.555-1.872 1.936-3.523 4.137-4.453 6.65-.954 2.497-1.026 5.27-.266 7.803.75 2.546 2.176 4.837 3.783 6.974.788 1.075 1.682 2.116 2.378 3.32a129.991 129.991 0 0 0 2.14 3.414c5.844 9.028 12.833 17.28 20.59 24.714 15.456 14.94 34.093 26.504 54.146 34.209a167.282 167.282 0 0 0 15.3 5.054c5.17 1.457 10.405 2.705 15.687 3.68 10.56 1.97 21.314 2.935 32.06 2.942 10.754.02 21.49-.905 32.057-2.856a174.697 174.697 0 0 0 30.996-8.565c20.107-7.432 38.855-18.616 54.84-32.856 7.971-7.057 15.366-14.971 21.785-23.502a109.29 109.29 0 0 0 4.666-6.494c1.477-2.237 2.998-4.475 4.354-6.722 1.378-2.281 2.675-4.649 3.991-6.962 1.277-2.334 2.555-4.731 3.617-7.1.525-1.193.997-2.4 1.36-3.624.096-.304.177-.612.256-.92.074-.309.133-.533.153-.806a4.505 4.505 0 0 0-.096-1.558c-.468-2.071-2.515-3.636-4.802-3.933-2.31-.343-4.772.456-6.863 1.81-1.019.663-2.118 1.56-3.187 2.356l-3.217 2.46c-4.28 3.29-8.518 6.636-12.751 9.999-4.238 3.354-8.456 6.747-12.822 9.98-4.365 3.225-8.9 6.286-13.735 8.835-4.835 2.548-9.962 4.516-15.205 5.984-10.512 2.918-21.337 4.188-32.122 5.224" style="fill:#161716;fill-opacity:1;fill-rule:nonzero;stroke:none;stroke-width:.118646" transform="translate(-9.825 134.394)"/><path d="M196.574 187.498c-49.493 18.555-100.986 3.729-115.013-33.116C67.535 117.538 96.286 72.625 145.78 54.07c8.686-3.257 19.713-8.758 29.11-11.585 39.066-11.754 74.336 14.321 85.902 44.7 11.615 30.513 2.028 66.56-32.518 88.587-7.168 4.57-23.195 8.537-31.699 11.726" style="fill:#fff;fill-opacity:1;fill-rule:nonzero;stroke:none;stroke-width:.118646" transform="translate(-9.825 134.394)"/><path d="M219.9 179.157c-49.492 18.558-100.984 3.731-115.01-33.114-14.027-36.845 14.724-81.756 64.216-100.313C218.6 27.174 270.092 42 284.118 78.845c14.026 36.845-14.724 81.756-64.217 100.312" style="fill:#fff;fill-opacity:1;fill-rule:nonzero;stroke:none;stroke-width:.118646" transform="translate(-9.825 134.394)"/><path d="M260.103 146.002c-28.716 10.766-60.79-3.609-71.64-32.107-10.848-28.499 3.636-60.329 32.352-71.096 28.716-10.766 60.791 3.608 71.64 32.106 10.85 28.5-3.635 60.33-32.352 71.097" style="fill:#7b5b3d;fill-opacity:1;fill-rule:nonzero;stroke:none;stroke-width:.118646" transform="translate(-9.825 134.394)"/><path d="M235.19 65.895c-.397 2.078-.638 4.095-.683 6.067-.017 1.967.188 3.891.817 5.654a12.088 12.088 0 0 0 2.924 4.79c.61.767 1.439 1.324 2.19 2.013.786.644 1.677 1.157 2.512 1.857-1.03-.217-2.093-.466-3.1-.864-.954-.497-2.007-.897-2.837-1.65-.944-.617-1.647-1.505-2.383-2.372-.609-.95-1.204-1.941-1.543-3.026a13.14 13.14 0 0 1-.406-6.59c.41-2.134 1.212-4.178 2.51-5.879" style="fill:#502d16;fill-opacity:1;fill-rule:nonzero;stroke:none;stroke-width:.118646" transform="translate(-9.825 134.394)"/><path d="M230.273 64.9a8.546 8.546 0 0 0 1.714 2.32c.685.646 1.495 1.103 2.31 1.264l-.454 1.33c-1.05-.492-1.84-1.285-2.401-2.148a8.794 8.794 0 0 1-1.169-2.766M228.238 68.5a7.304 7.304 0 0 0 2.489 1.977c.935.466 1.954.68 2.945.696l-.174 1.394c-2.358-.528-4.292-2.116-5.26-4.068M255.771 119.953c-2.108-.422-4.07-1.43-5.8-2.762-1.735-1.335-3.185-3.127-4.086-5.211-.47-1.037-.682-2.17-.86-3.28-.024-1.135-.09-2.263.207-3.345.123-1.11.644-2.102 1.029-3.1.492-.96 1.123-1.843 1.752-2.682-.162 1.073-.487 2.042-.65 3.042-.103 1.01-.354 1.971-.3 2.947a12.06 12.06 0 0 0 .998 5.513c.703 1.733 1.831 3.311 3.153 4.777 1.349 1.449 2.874 2.803 4.557 4.101" style="fill:#502d16;fill-opacity:1;fill-rule:nonzero;stroke:none;stroke-width:.118646" transform="translate(-9.825 134.394)"/><path d="M252.745 123.927a8.823 8.823 0 0 1-.969-2.84c-.153-1.016-.088-2.13.372-3.187l1.228.698c-.506.656-.809 1.53-.89 2.465-.08.934.006 1.915.259 2.864M248.82 122.563c-.575-2.1-.183-4.56 1.234-6.503l1.06.931a6.729 6.729 0 0 0-1.743 2.455 7.154 7.154 0 0 0-.55 3.117" style="fill:#502d16;fill-opacity:1;fill-rule:nonzero;stroke:none;stroke-width:.118646" transform="translate(-9.825 134.394)"/><path d="M223.571 124.307c-7.328 2.747-20.213-3.319-24.692-15.084-4.479-11.764 1.147-24.771 8.472-27.517 3.96-1.484 9.207-.656 12.682 3.468 3.905 4.636 2.275 9.083 4.334 14.493 2.185 5.742 6.331 9.885 6.273 14.542-.062 5-3.318 8.692-7.069 10.098" style="fill:#9c6000;fill-opacity:1;fill-rule:nonzero;stroke:none;stroke-width:.118646" transform="translate(-9.825 134.394)"/><path d="M221.378 88.796c-.404-1.06-.991-2.105-1.888-3.172-3.415-4.051-8.431-4.558-11.889-3.262-7.165 2.688-12.293 15.496-8.06 26.613 4.231 11.119 16.613 17.363 23.78 14.675 3.01-1.129 6.548-4.28 6.612-9.45.03-2.645-1.414-5.156-3.09-8.064-1.113-1.931-2.265-3.928-3.137-6.22-.84-2.207-1.084-4.221-1.32-6.17-.212-1.757-.407-3.37-1.008-4.95zm-23.162 20.675c-4.629-12.162 1.076-25.494 8.885-28.422 3.926-1.473 9.615-.906 13.474 3.675 2.506 2.975 2.85 5.83 3.217 8.855.225 1.864.458 3.793 1.237 5.84.834 2.19 1.957 4.136 3.042 6.018 1.704 2.956 3.315 5.75 3.278 8.78-.061 4.838-3.015 9.056-7.529 10.747-7.81 2.93-20.973-3.33-25.604-15.493" style="fill:#9c6000;fill-opacity:1;fill-rule:nonzero;stroke:none;stroke-width:.118646" transform="translate(-9.825 134.394)"/><path d="M220.42 114.716c-4.085 1.532-11.268-1.851-13.764-8.407-2.495-6.56.64-13.81 4.723-15.34 2.207-.827 5.132-.365 7.069 1.933 2.177 2.585 1.268 5.063 2.416 8.08 1.219 3.199 3.528 5.509 3.497 8.104-.036 2.788-1.85 4.846-3.94 5.63" style="fill:#c88c00;fill-opacity:1;fill-rule:nonzero;stroke:none;stroke-width:.118646" transform="translate(-9.825 134.394)"/><path d="M200.118 108.759c-2.13-5.596.726-11.868 6.364-13.982a11.012 11.012 0 0 1 7.544-.067 2.101 2.101 0 0 1 1.282 2.694 2.127 2.127 0 0 1-2.714 1.274 6.734 6.734 0 0 0-4.61.041c-3.45 1.293-5.195 5.129-3.892 8.55 1.303 3.422 5.167 5.154 8.615 3.862a6.64 6.64 0 0 0 3.647-3.3 2.132 2.132 0 0 1 2.84-.972 2.098 2.098 0 0 1 .977 2.817 10.85 10.85 0 0 1-5.963 5.398c-5.637 2.113-11.959-.72-14.09-6.315" style="fill:#844800;fill-opacity:1;fill-rule:nonzero;stroke:none;stroke-width:.118646" transform="translate(-9.825 134.394)"/><path d="m298.292 73.53.025-.008c-.167-.458-.351-.89-.523-1.338-.17-.45-.32-.894-.499-1.348l-.025.01c-31.559-78.462-139.801-20.53-139.801-20.53 95.644-28.899 120.712 26.441 121.448 28.58l.14.313.01.032.271.715c.873 2.088 21.207 60.78-69.798 101.861 0 0 117.354-28.717 88.752-108.287" style="fill:#fff;fill-opacity:1;fill-rule:nonzero;stroke:none;stroke-width:.118646" transform="translate(-9.825 134.394)"/><path d="M262.033 154.44c-5.211 1.955-11.032-.654-13.002-5.826-1.967-5.172.661-10.95 5.873-12.903 5.212-1.955 11.033.654 13.002 5.827 1.968 5.172-.66 10.948-5.873 12.902M222.734 54.04c-5.212 1.954-11.032-.654-13.002-5.827-1.969-5.172.66-10.95 5.872-12.903 5.211-1.954 11.033.655 13.002 5.827 1.968 5.173-.66 10.95-5.872 12.903" style="fill:#7b5b3d;fill-opacity:1;fill-rule:nonzero;stroke:none;stroke-width:.118646" transform="translate(-9.825 134.394)"/><path d="M185.263 179.554a374.43 374.43 0 0 1-4.654-9.134 158.731 158.731 0 0 1-2.187-4.624c-.713-1.542-1.312-3.146-1.97-4.718-1.334-3.138-2.456-6.36-3.64-9.553-1.078-3.23-2.183-6.45-3.11-9.726-1.913-6.528-3.524-13.14-4.75-19.818-2.432-13.356-3.459-26.944-2.952-40.45.275-6.75.912-13.483 1.981-20.132a139.563 139.563 0 0 1 1.937-9.893c.386-1.63.794-3.256 1.248-4.86.148-.53.305-1.067.465-1.603l-5.857 2.282c-.235 1.05-.463 2.102-.675 3.154a144.186 144.186 0 0 0-1.653 10.28c-.868 6.875-1.285 13.786-1.334 20.688-.05 13.81 1.469 27.581 4.388 41.02 1.468 6.72 3.324 13.345 5.475 19.864 1.048 3.27 2.271 6.48 3.466 9.693 1.301 3.176 2.539 6.374 3.986 9.485 2.7 6.315 6.048 12.316 9.357 18.3 1.844 3.29 3.721 6.561 5.623 9.817l.237-.076a626.208 626.208 0 0 1-5.38-9.996M172.188 188.12a192.064 192.064 0 0 1-7.773-5.195 208.03 208.03 0 0 1-14.774-11.537c-9.5-8.144-18.335-17.094-26.3-26.775-8.016-9.643-15.112-20.047-21.358-30.94a226.174 226.174 0 0 1-9.855-19.676l-.374.537a227.065 227.065 0 0 0 9.07 19.762c5.895 11.168 12.684 21.91 20.449 31.941 7.714 10.07 16.353 19.459 25.732 28.08a212.345 212.345 0 0 0 14.666 12.292 196.816 196.816 0 0 0 7.797 5.61 170.72 170.72 0 0 0 2.628 1.738l7.612-1.46c-2.485-1.306-5.055-2.828-7.52-4.376" style="fill:#bcbbb9;fill-opacity:1;fill-rule:nonzero;stroke:none;stroke-width:.118646" transform="translate(-9.825 134.394)"/><path d="m91.083 95.496.671-.962-.006-.015c-.206.298-.432.626-.665.977M92.604 93.315s-.19.26-.481.67l.005.012.476-.682" style="fill:#bcbbb9;fill-opacity:1;fill-rule:nonzero;stroke:none;stroke-width:.118646" transform="translate(-9.825 134.394)"/><path d="M92.123 93.984c-.112.156-.24.34-.375.535l.006.015.375-.537-.006-.013M180.818 192.286l-1.11.211.07.038c.356-.084.707-.165 1.04-.25M172.148 193.991l-.052-.034-1.303.25s.525-.08 1.355-.216" style="fill:#bcbbb9;fill-opacity:1;fill-rule:nonzero;stroke:none;stroke-width:.118646" transform="translate(-9.825 134.394)"/><path d="m179.777 192.535-.069-.038-7.612 1.46.052.034c1.771-.29 4.956-.84 7.63-1.456M244.087 48.313c8.003 2.263 15.514 6.35 22 11.715 3.255 2.68 6.167 5.792 8.694 9.203a46.898 46.898 0 0 1 6.013 11.205c1.45 4 2.363 8.202 2.602 12.433.243 4.222.06 8.47-.768 12.586-1.49 8.263-4.647 16.085-8.863 23.184 3.03-7.668 5.439-15.537 6.42-23.546.309-1.995.334-4.006.462-6.005.05-1.001-.032-2.001-.041-3l-.037-1.497-.16-1.486c-.136-.987-.156-1.988-.344-2.966l-.535-2.933c-.492-1.923-.979-3.85-1.71-5.7-2.681-7.482-7.47-14.14-13.369-19.654-5.938-5.495-12.845-10.066-20.364-13.54M185.5 86.114c-.17 4.795.175 9.548.876 14.222.736 4.67 1.885 9.258 3.537 13.661a59.85 59.85 0 0 0 6.442 12.529c2.647 3.914 5.799 7.497 9.26 10.856a45.095 45.095 0 0 1-10.598-9.902c-1.513-1.916-2.803-3.994-4.026-6.106a58.737 58.737 0 0 1-3.054-6.648c-1.676-4.58-2.774-9.363-3.19-14.195-.408-4.823-.287-9.714.753-14.417" style="fill:#bcbbb9;fill-opacity:1;fill-rule:nonzero;stroke:none;stroke-width:.118646" transform="translate(-9.825 134.394)"/><path d="M271.302 160.873c-10.205-7.139-26.872-2.855-41.092 1.851-8.624 2.855-30.345-1.7-37.677-5.053-14.287-6.531-34.35-18.075-60.395-21.659-34-4.678-45.853 11.419-48.593 29.72-2.739 18.301 22.603 36.929 56.604 41.607 19.507 2.684 37.629-.742 51.216-3.734 23.68-5.213 49.03-5.082 72.857-18.321 9.092-5.05 15.569-18.473 7.08-24.41" style="fill:#6f5244;fill-opacity:1;fill-rule:nonzero;stroke:none;stroke-width:.118646" transform="translate(-9.825 134.394)"/><path d="M104.352 195.718c5.331 2.145 10.633 4.372 16.057 6.214 5.423 1.844 10.984 3.25 16.621 4.137 5.643.862 11.345 1.248 17.045 1.235 5.701-.05 11.4-.467 17.05-1.26 5.652-.778 11.262-1.865 16.818-3.182 2.746-.657 5.626-1.377 8.481-1.896 2.86-.539 5.736-.948 8.605-1.319 11.473-1.447 22.948-2.171 33.935-4.828 5.476-1.336 10.8-3.194 15.73-5.786a54.177 54.177 0 0 0 7.042-4.445 37.617 37.617 0 0 0 6.075-5.508c1.79-2.035 3.347-4.286 4.325-6.677.996-2.376 1.297-4.927.402-6.986a7.405 7.405 0 0 0-2.121-2.702 15.237 15.237 0 0 0-3.284-1.959c-2.387-1.041-5.052-1.523-7.771-1.651-5.466-.245-11.079.781-16.62 2.018-2.777.627-5.553 1.325-8.343 2.022l-4.2 1.034c-1.456.283-2.906.654-4.385.805-2.943.42-5.92.512-8.868.366a55.57 55.57 0 0 1-8.756-1.099c-5.755-1.173-11.303-3.12-16.57-5.59l-.05-.023-.033-.02c-4.355-2.475-8.851-4.803-13.377-7.017-4.534-2.208-9.104-4.356-13.762-6.302-4.654-1.953-9.38-3.746-14.199-5.264-4.82-1.502-9.721-2.8-14.744-3.517 5.048.476 10.055 1.474 14.948 2.832 4.902 1.341 9.723 2.964 14.479 4.752a223.155 223.155 0 0 1 14.071 5.849c4.618 2.127 9.169 4.352 13.67 6.772l-.084-.041c5.183 2.285 10.601 4.04 16.144 5.035 2.767.513 5.568.79 8.363.856 2.795.073 5.592-.078 8.332-.538 10.945-2.021 22.018-6.596 34.136-6.322 3.016.132 6.11.655 9.008 1.904a18.597 18.597 0 0 1 4.093 2.431 10.852 10.852 0 0 1 3.123 3.992c.686 1.599.942 3.355.805 5.002-.113 1.657-.551 3.214-1.137 4.666-1.184 2.907-2.94 5.424-4.912 7.69-8.138 8.962-19.363 14.044-30.714 16.749-11.417 2.741-23.036 3.227-34.372 4.556-2.838.327-5.66.716-8.46 1.179-2.815.448-5.532 1.061-8.39 1.676-5.661 1.204-11.377 2.176-17.135 2.835-11.498 1.284-23.257 1.368-34.646-.904-5.687-1.116-11.256-2.751-16.64-4.813-5.4-2.032-10.572-4.55-15.784-6.958" style="fill:#000;fill-opacity:1;fill-rule:nonzero;stroke:none;stroke-width:.118646" transform="translate(-9.825 134.394)"/><path d="M66.25 125.845s59.752-2.039 102.59 21.133l-87.031 31.987-15.559-53.12" style="fill:#6f5244;fill-opacity:1;fill-rule:nonzero;stroke:none;stroke-width:.119;stroke-dasharray:none;opacity:1" transform="translate(-9.825 134.394)"/></g></svg>