<?xml version="1.0" encoding="UTF-8" standalone="no"?>
<!-- Created with Inkscape (http://www.inkscape.org/) -->

<svg
   version="1.1"
   id="svg1"
   width="344.60001"
   height="525.37335"
   viewBox="0 0 344.60001 525.37335"
   sodipodi:docname="516839-PJ7LFY-397.svg"
   inkscape:version="1.3.2 (091e20ef0f, 2023-11-25)"
   xmlns:inkscape="http://www.inkscape.org/namespaces/inkscape"
   xmlns:sodipodi="http://sodipodi.sourceforge.net/DTD/sodipodi-0.dtd"
   xmlns="http://www.w3.org/2000/svg"
   xmlns:svg="http://www.w3.org/2000/svg">
  <defs
     id="defs1" />
  <sodipodi:namedview
     id="namedview1"
     pagecolor="#ffffff"
     bordercolor="#000000"
     borderopacity="0.25"
     inkscape:showpageshadow="2"
     inkscape:pageopacity="0.0"
     inkscape:pagecheckerboard="0"
     inkscape:deskcolor="#d1d1d1"
     inkscape:zoom="1.3035162"
     inkscape:cx="60.988883"
     inkscape:cy="284.23121"
     inkscape:window-width="1366"
     inkscape:window-height="683"
     inkscape:window-x="0"
     inkscape:window-y="0"
     inkscape:window-maximized="1"
     inkscape:current-layer="group-R5">
    <inkscape:page
       x="0"
       y="0"
       inkscape:label="1"
       id="page1"
       width="344.60001"
       height="525.37335"
       margin="0"
       bleed="0" />
  </sodipodi:namedview>
  <g
     id="g1"
     inkscape:groupmode="layer"
     inkscape:label="1">
    <g
       id="group-R5"
       transform="translate(-9.8253619,134.39419)"
       inkscape:label="group-R5"
       style="display:inline">
      <path
         id="path2"
         d="m 279.33009,160.80701 c 4.29233,-1.10985 8.60372,-2.14997 12.90201,-3.23264 9.76255,-9.52886 20.14682,-18.32611 31.63512,-25.53718 0.65861,-5.38377 1.00876,-10.8621 1.00876,-16.42199 0,-74.668414 -60.99425,-135.199544 -136.23394,-135.199544 -75.24042,0 -136.233598,60.53113 -136.233598,135.199544 0,18.71616 3.833563,36.54349 10.761323,52.75155 6.317376,-1.624 13.7126,-0.61107 19.446153,2.70548 8.141976,1.20204 15.988585,3.41701 23.719792,6.56809 5.68841,2.31898 11.31537,4.76798 16.89397,7.33517 2.07113,0.95265 4.13679,1.91594 6.21221,2.85795 0.80071,0.36404 1.60463,0.72217 2.40664,1.08149 7.89401,2.36743 15.32329,5.78208 23.43622,7.64838 2.13306,0.49169 4.27803,0.92428 6.43373,1.30369 -0.95636,-0.34276 -0.5419,-0.75763 2.39389,0.35222 3.58489,0.32503 7.15667,0.6087 10.763,0.69262 17.97206,0.41605 36.10967,-0.76945 53.95786,-2.78585 1.61023,-0.18084 3.22759,-0.34867 4.839,-0.54842 0.28704,-0.0449 0.79797,-0.12411 1.62452,-0.24821 0.91229,-0.13711 1.8246,-0.26713 2.73689,-0.40541 4.21135,-0.63707 8.41198,-1.34033 12.5995,-2.11687 1.1517,-0.21275 2.29862,-0.44087 3.44197,-0.67607 0.76105,-14.15502 11.35968,-27.73325 25.25498,-31.324"
         style="fill:#cf9040;fill-opacity:1;fill-rule:nonzero;stroke:none;stroke-width:0.118646" />
      <path
         id="path3"
         d="m 290.59092,131.40012 c -38.14271,29.19649 -41.51797,38.44525 -82.25346,43.98504 v 51.08263 c 16.06052,-5.81755 30.96816,-13.94108 44.26559,-23.75125 3.33358,-2.44782 6.54569,-5.0682 9.69348,-7.69449 3.06561,-2.76221 6.1741,-5.40505 9.02176,-8.3611 2.92745,-2.83905 5.70604,-5.83529 8.36433,-8.92017 2.70712,-3.02342 5.21059,-6.24778 7.65808,-9.47805 2.47131,-3.20544 4.69489,-6.64372 6.90656,-10.03592 1.11119,-1.689 2.13306,-3.46429 3.1454,-5.23839 1.02426,-1.75638 1.9973,-3.56003 2.96557,-5.34833 1.87463,-3.64985 3.61109,-7.38835 5.21893,-11.19896 2.11759,-5.50787 -6.75888,-11.33961 -14.98624,-5.04101"
         style="fill:#6f5244;fill-opacity:1;fill-rule:nonzero;stroke:none;stroke-width:0.118646" />
      <path
         id="path4"
         d="m 290.59092,131.40012 -0.36326,-0.46805 c -19.08922,14.61362 -29.47823,24.2264 -40.10783,30.83113 -10.62603,6.60236 -21.52956,10.26759 -41.86336,13.03689 l -0.51451,0.0698 v 52.44187 l 0.79916,-0.28957 c 16.11769,-5.83765 31.07535,-13.98837 44.41803,-23.83163 l 0.0131,-0.009 -0.0143,0.0106 c 3.34906,-2.46082 6.56951,-5.08829 9.72206,-7.71694 l 0.008,-0.007 0.008,-0.008 c 3.05727,-2.75393 6.17648,-5.40623 9.05272,-8.38947 l -0.43113,-0.40895 0.41684,0.42313 c 2.94175,-2.8544 5.73225,-5.86364 8.40006,-8.95916 l -0.45257,-0.38414 0.44543,0.39241 c 2.72618,-3.0447 5.23798,-6.28206 7.68904,-9.51587 l -0.003,0.004 c 2.49036,-3.23026 4.72109,-6.68273 6.93276,-10.07256 l -9e-4,0.003 c 1.12311,-1.71027 2.15212,-3.49501 3.16446,-5.2703 l -0.003,0.004 c 1.0314,-1.76819 2.00563,-3.57776 2.97391,-5.36486 l 0.004,-0.006 0.004,-0.006 c 1.88177,-3.66286 3.62419,-7.41555 5.2368,-11.23916 l 0.004,-0.009 0.003,-0.008 c 0.24058,-0.62525 0.3573,-1.2635 0.3561,-1.88994 -8.9e-4,-1.81901 -0.9647,-3.5021 -2.48202,-4.71124 -1.5209,-1.2115 -3.61109,-1.97267 -5.95972,-1.97267 -2.45583,-8.9e-4 -5.18916,0.838 -7.82005,2.8544 l 0.36325,0.46805 0.36325,0.46688 c 2.44511,-1.86984 4.91046,-2.6062 7.09355,-2.60738 2.08781,-8.9e-4 3.91955,0.67961 5.21416,1.71146 1.2958,1.03538 2.03778,2.39935 2.03659,3.7905 0,0.48343 -0.0869,0.97393 -0.2775,1.46917 l 0.5562,0.21039 -0.54905,-0.22812 c -1.60189,3.7976 -3.33239,7.5231 -5.19987,11.15878 l 0.52999,0.2683 -0.52403,-0.28013 c -0.96948,1.7883 -1.93894,3.58722 -2.95724,5.33296 l -0.003,0.004 c -1.01115,1.77292 -2.02825,3.53639 -3.12515,5.20648 l -9e-4,0.003 c -2.21286,3.39218 -4.42929,6.81866 -6.88035,9.99692 l -0.003,0.004 c -2.4451,3.22672 -4.93904,6.43808 -7.6283,9.44141 l -0.003,0.003 -0.004,0.006 c -2.64876,3.07307 -5.41544,6.05631 -8.32741,8.88117 l -0.007,0.007 -0.007,0.007 c -2.82146,2.92887 -5.91685,5.56343 -8.99198,8.33274 l 0.40017,0.43732 -0.38351,-0.45269 c -3.14421,2.62392 -6.34679,5.23603 -9.6637,7.67203 l -8.9e-4,8.9e-4 c -13.25216,9.77708 -28.11097,17.87225 -44.11551,23.6697 l 0.20485,0.55551 h 0.5955 v -51.08263 h -0.5955 l 0.0798,0.58507 c 20.40169,-2.77049 31.55413,-6.49954 42.33499,-13.20591 10.77728,-6.70284 21.14724,-16.31326 40.20192,-30.89732 l -0.36325,-0.46687"
         style="fill:#000000;fill-opacity:1;fill-rule:nonzero;stroke:none;stroke-width:0.118646" />
      <path
         id="path5"
         d="m 302.90934,127.93228 c -38.14389,29.19768 -41.51916,38.44643 -82.25464,43.98622 v 51.08145 c 16.0617,-5.81636 30.96935,-13.94108 44.26677,-23.75007 3.33358,-2.44781 6.54331,-5.06819 9.69229,-7.69449 3.0668,-2.76221 6.17529,-5.40622 9.02295,-8.3611 2.92746,-2.84022 5.70604,-5.83646 8.36433,-8.91898 2.70713,-3.02579 5.2106,-6.25015 7.65809,-9.47923 2.47011,-3.20544 4.69488,-6.64373 6.90656,-10.03593 1.11119,-1.689 2.13306,-3.46429 3.1454,-5.23839 1.02426,-1.75637 1.99611,-3.56121 2.96557,-5.34832 1.87462,-3.64986 3.61109,-7.38836 5.21893,-11.19778 2.11758,-5.51024 -6.75888,-11.34079 -14.98625,-5.04338"
         style="fill:#6f5244;fill-opacity:1;fill-rule:nonzero;stroke:none;stroke-width:0.118646" />
      <path
         id="path6"
         d="m 302.90934,127.93228 -0.36445,-0.46686 c -19.08802,14.61361 -29.47704,24.2264 -40.10664,30.83113 -10.62721,6.60236 -21.52955,10.26758 -41.86455,13.03571 l -0.51449,0.0709 v 52.44188 l 0.80033,-0.28958 c 16.1165,-5.83646 31.07536,-13.98954 44.41804,-23.83045 h -9e-4 c 3.34907,-2.45963 6.56832,-5.08829 9.72087,-7.71812 l 0.008,-0.007 0.008,-0.007 c 3.05847,-2.75512 6.17767,-5.40624 9.05273,-8.38947 l -0.42995,-0.40896 0.41685,0.42314 c 2.94174,-2.85559 5.73224,-5.86365 8.40006,-8.95799 l -0.45258,-0.38413 0.44425,0.39241 c 2.72618,-3.04588 5.23917,-6.28324 7.69023,-9.51587 l -0.004,0.004 c 2.49037,-3.23144 4.72229,-6.68392 6.93396,-10.07375 l -8.9e-4,8.9e-4 c 1.12311,-1.7091 2.15093,-3.49384 3.16446,-5.2703 l -0.004,0.006 c 1.0314,-1.7682 2.00682,-3.57776 2.9751,-5.36486 l 0.004,-0.006 0.003,-0.006 c 1.88296,-3.66286 3.62538,-7.41555 5.23798,-11.23797 l 0.004,-0.008 0.004,-0.009 c 0.24059,-0.62644 0.35611,-1.26469 0.35611,-1.88994 -8.9e-4,-1.82019 -0.9647,-3.50329 -2.48203,-4.71243 -1.52089,-1.21149 -3.61228,-1.97267 -5.95972,-1.97267 -2.45582,-8.8e-4 -5.18915,0.838 -7.82124,2.85441 l 0.36444,0.46686 0.36325,0.46806 c 2.44511,-1.86984 4.91046,-2.60738 7.09355,-2.60738 2.08662,-8.9e-4 3.91955,0.67962 5.21297,1.71146 1.29699,1.03539 2.03898,2.39935 2.03779,3.79169 0,0.48224 -0.0882,0.97274 -0.2775,1.46798 l 0.55619,0.21157 -0.54905,-0.2293 c -1.60307,3.7976 -3.33239,7.52311 -5.20106,11.15878 l 0.53118,0.26831 -0.52403,-0.28013 c -0.96947,1.78829 -1.93893,3.5884 -2.95723,5.33296 l -0.003,0.004 c -1.01115,1.77292 -2.02826,3.53639 -3.12635,5.20648 l -9e-4,0.003 c -2.21287,3.39219 -4.42811,6.81748 -6.87917,9.99692 l -0.003,0.004 v 0 c -2.4463,3.22672 -4.93905,6.43808 -7.6283,9.44141 l -0.004,0.004 -0.004,0.004 c -2.64877,3.07307 -5.41544,6.0563 -8.32741,8.88234 l -0.007,0.007 -0.007,0.007 c -2.82146,2.92652 -5.91803,5.56108 -8.99317,8.33038 l 0.40017,0.4385 -0.3835,-0.45268 c -3.14541,2.62393 -6.3456,5.23603 -9.66252,7.67202 l -8.9e-4,8.9e-4 c -13.25335,9.7759 -28.11098,17.87342 -44.11552,23.66852 l 0.20366,0.55551 h 0.5955 V 171.9191 h -0.5955 l 0.081,0.58506 c 20.40168,-2.77048 31.55413,-6.49953 42.33498,-13.20591 10.77729,-6.70282 21.14725,-16.31325 40.20192,-30.89732 l -0.36325,-0.46805"
         style="fill:#000000;fill-opacity:1;fill-rule:nonzero;stroke:none;stroke-width:0.118646" />
      <path
         id="path7"
         d="m 312.28482,126.10854 c -38.14388,29.19767 -41.51797,38.44524 -82.25464,43.98504 v 51.08263 c 16.06291,-5.81756 30.97055,-13.94109 44.26797,-23.75125 3.33359,-2.44783 6.54331,-5.06821 9.69228,-7.69449 3.06681,-2.76103 6.1753,-5.40624 9.02296,-8.3611 2.92746,-2.84023 5.70604,-5.83529 8.36434,-8.91899 2.70711,-3.02579 5.20939,-6.24896 7.65688,-9.47923 2.4725,-3.20544 4.69608,-6.64373 6.90775,-10.03474 1.1112,-1.69019 2.13307,-3.46429 3.14541,-5.23958 1.02425,-1.75638 1.99729,-3.56121 2.96556,-5.34714 1.87463,-3.64985 3.61109,-7.38954 5.21893,-11.19896 2.11759,-5.50905 -6.76007,-11.34079 -14.98744,-5.04219"
         style="fill:#6f5244;fill-opacity:1;fill-rule:nonzero;stroke:none;stroke-width:0.118646" />
      <path
         id="path8"
         d="m 312.28482,126.10854 -0.36444,-0.46805 c -19.08802,14.61361 -29.47704,24.22639 -40.10664,30.83113 -10.62603,6.60236 -21.52836,10.26759 -41.86455,13.03689 l -0.51451,0.0698 v 52.44305 l 0.80035,-0.28957 c 16.11769,-5.83765 31.07655,-13.98955 44.41922,-23.83163 h -8.9e-4 c 3.34906,-2.45963 6.56831,-5.08828 9.72087,-7.71812 l 0.008,-0.007 0.008,-0.007 c 3.05847,-2.75394 6.17768,-5.40623 9.05273,-8.38947 l -0.42994,-0.40895 0.41684,0.42314 c 2.94175,-2.85559 5.73225,-5.86365 8.40006,-8.95799 l -0.45257,-0.38414 0.44424,0.39241 c 2.72618,-3.04588 5.23798,-6.28206 7.68904,-9.51587 l -0.004,0.004 c 2.49155,-3.23145 4.72347,-6.68273 6.93514,-10.07256 l -8.9e-4,8.8e-4 c 1.1231,-1.70909 2.15212,-3.49502 3.16446,-5.27149 l -0.004,0.006 c 1.03141,-1.76819 2.00683,-3.57775 2.9751,-5.36368 l 0.004,-0.006 0.003,-0.006 c 1.88295,-3.66404 3.62537,-7.41673 5.23798,-11.23915 l 0.004,-0.008 0.004,-0.009 c 0.24058,-0.62642 0.3561,-1.2635 0.3561,-1.88993 -8.9e-4,-1.8202 -0.9647,-3.50329 -2.48321,-4.71242 -1.52089,-1.2115 -3.61108,-1.97268 -5.95973,-1.97268 -2.45582,-8.9e-4 -5.18914,0.83801 -7.82124,2.85441 l 0.36445,0.46805 0.36325,0.46687 c 2.4451,-1.86866 4.91046,-2.6062 7.09354,-2.60738 2.08782,-8.8e-4 3.92076,0.67962 5.21417,1.71265 1.29699,1.03538 2.03897,2.39817 2.03779,3.7905 0,0.48223 -0.0882,0.97275 -0.27751,1.46798 l 0.5562,0.21157 -0.54905,-0.22811 c -1.60188,3.79641 -3.33239,7.52309 -5.19987,11.15877 l 0.52999,0.2683 -0.52403,-0.28012 c -0.96947,1.7871 -1.93894,3.58721 -2.95724,5.33177 l -0.003,0.004 c -1.01115,1.77293 -2.02825,3.53758 -3.12635,5.20767 l -8.9e-4,8.9e-4 c -2.21286,3.39219 -4.42811,6.81748 -6.88036,9.99692 l -0.003,0.004 c -2.4463,3.22672 -4.93785,6.43807 -7.62712,9.4414 l -0.004,0.004 -0.004,0.004 c -2.64876,3.07307 -5.41544,6.05513 -8.32742,8.88117 l -0.007,0.007 -0.007,0.007 c -2.82145,2.9265 -5.91803,5.56225 -8.99318,8.33037 l 0.40018,0.43851 -0.3835,-0.45269 c -3.14422,2.62392 -6.3456,5.23603 -9.66251,7.67321 h -9e-4 c -13.25335,9.77707 -28.11096,17.87343 -44.1167,23.6697 l 0.20366,0.55552 h 0.59549 v -51.08263 h -0.59549 l 0.081,0.58624 c 20.40169,-2.77167 31.55413,-6.49954 42.33498,-13.20591 10.77729,-6.70401 21.14725,-16.31444 40.20193,-30.8985 l -0.36326,-0.46687"
         style="fill:#000000;fill-opacity:1;fill-rule:nonzero;stroke:none;stroke-width:0.118646"
         inkscape:label="path8" />
      <path
         id="path9"
         d="m 51.648707,126.83307 c 19.201524,-6.94867 38.323489,-2.1665 49.030263,-0.74581 35.33386,4.68998 88.91705,52.696 127.78268,48.41616 49.54762,-5.45706 50.55163,-13.86071 91.36096,-45.09842 8.22737,-6.2986 17.10502,-0.46688 14.98624,5.04219 -1.60664,3.80942 -3.3443,7.54792 -5.21773,11.19778 -0.96827,1.78829 -1.94131,3.59194 -2.96557,5.34831 -1.01234,1.77411 -2.03421,3.5494 -3.1466,5.23959 -2.21167,3.391 -4.43406,6.82929 -6.90656,10.03474 -2.44749,3.23026 -4.95094,6.45462 -7.65688,9.47922 -2.6583,3.08371 -5.43687,6.07876 -8.36434,8.92017 -2.84766,2.95487 -5.95615,5.5977 -9.02295,8.35992 -3.14779,2.62629 -6.3587,5.24667 -9.69348,7.69448 -13.33315,9.83737 -28.28605,17.98099 -44.39897,23.80091 -8.04158,2.93005 -16.34756,5.33531 -24.84171,7.06687 -8.48581,1.75165 -17.13121,2.97142 -25.84213,3.4572 -17.4111,1.04248 -35.02587,-0.39714 -51.86078,-4.42167 -16.84097,-3.99854 -32.9053,-10.44488 -47.39967,-19.07784 -14.523547,-8.56557 -27.49416,-19.31658 -38.336352,-31.80505 -5.412937,-6.25841 -10.280246,-12.98488 -14.469189,-20.16168 -2.077256,-3.60967 -3.464106,-4.3673 -5.114285,-8.24173 -0.01675,-0.039 -2.641578,-3.79287 -0.796936,-8.8788 4.175446,-11.51099 17.413651,-13.65031 22.873989,-15.62654"
         style="fill:#6f5244;fill-opacity:1;fill-rule:nonzero;stroke:none;stroke-width:0.118646" />
      <path
         id="path10"
         d="m 228.46165,174.50342 c 5.37851,-0.68789 10.74512,-1.4597 16.07362,-2.4289 5.33088,-0.9491 10.61888,-2.12751 15.77945,-3.69123 5.1558,-1.58145 10.14724,-3.64158 14.83141,-6.25842 4.68536,-2.61919 9.07179,-5.73599 13.32244,-9.04072 8.49891,-6.613 16.73224,-13.65623 25.23711,-20.35788 l 3.18948,-2.51519 c 1.08856,-0.83209 2.06755,-1.67364 3.30023,-2.51046 2.39032,-1.59445 5.38804,-2.69838 8.50606,-2.29652 1.53996,0.1962 3.06562,0.78008 4.33759,1.76347 1.2696,0.97511 2.25455,2.3899 2.66426,3.99025 0.20723,0.79664 0.27034,1.63109 0.19174,2.44546 -0.0238,0.39831 -0.12148,0.83208 -0.20009,1.1784 -0.0846,0.34395 -0.16912,0.68907 -0.26916,1.02829 -0.38469,1.36398 -0.87657,2.67948 -1.41728,3.95835 -2.22834,5.06346 -4.8783,9.74635 -7.55327,14.48951 -1.38393,2.39817 -2.90959,4.6155 -4.38642,6.89076 -1.49112,2.25752 -3.08943,4.52922 -4.74372,6.67091 -1.63523,2.15942 -3.29785,4.31412 -5.04861,6.4168 -0.86705,1.05549 -1.79482,2.09087 -2.65948,3.09435 -0.89206,1.02947 -1.79602,2.05068 -2.71785,3.0577 -1.81983,2.01049 -3.78616,3.99853 -5.66793,5.86837 -1.9306,1.97031 -3.966,3.81296 -5.98235,5.61662 -16.22607,14.59588 -35.25812,26.08206 -55.75508,33.77536 -10.23657,3.82361 -20.87332,6.70993 -31.64345,8.57977 -10.77133,1.93603 -21.73918,2.82604 -32.67485,2.74921 -21.87257,-0.12411 -43.78384,-4.17464 -64.04463,-12.37146 -20.254831,-8.14007 -38.978052,-20.13686 -54.360422,-35.51046 -7.65486,-7.70631 -14.502585,-16.21634 -20.158914,-25.44853 -0.705758,-1.15477 -1.399415,-2.31544 -2.068883,-3.49266 -0.626199,-1.1524 -1.475245,-2.19133 -2.252642,-3.30946 -1.571561,-2.20197 -3.000746,-4.59777 -3.699058,-7.2607 -0.703429,-2.65349 -0.525246,-5.5268 0.531294,-8.03608 1.031887,-2.52819 2.766269,-4.67933 4.698831,-6.55508 -1.87069,1.93603 -3.522261,4.13681 -4.451795,6.64964 -0.954188,2.49745 -1.026298,5.27031 -0.266576,7.80323 0.749488,2.54591 2.175891,4.83653 3.783265,6.97349 0.787626,1.07558 1.682275,2.11687 2.37779,3.3201 0.692729,1.14885 1.411051,2.28707 2.139592,3.41465 5.844697,9.02772 12.833435,17.28008 20.590721,24.71335 15.456331,14.93984 34.092967,26.50402 54.145447,34.20914 5.01516,1.92894 10.12295,3.61677 15.29996,5.05401 5.17104,1.45734 10.40545,2.70548 15.68715,3.67941 10.561,1.97149 21.31445,2.93596 32.06077,2.94305 10.75347,0.0189 21.49026,-0.90537 32.05673,-2.85677 10.58792,-1.89348 20.94478,-4.76797 30.99556,-8.5644 20.1075,-7.43209 38.8549,-18.61569 54.84039,-32.8558 7.97131,-7.05741 15.36618,-14.97174 21.78443,-23.50187 1.65429,-2.12278 3.17161,-4.25974 4.6663,-6.49481 1.47684,-2.23624 2.99773,-4.47485 4.35427,-6.72173 1.37798,-2.28117 2.67497,-4.64861 3.99102,-6.96169 1.27674,-2.33434 2.55467,-4.73133 3.61703,-7.10114 0.52523,-1.19259 0.99686,-2.39818 1.36012,-3.62267 0.0953,-0.30494 0.17626,-0.61225 0.25607,-0.91956 0.0739,-0.30967 0.1322,-0.53424 0.15244,-0.80727 0.0583,-0.52361 0.0274,-1.04957 -0.0953,-1.5578 -0.46806,-2.07078 -2.51537,-3.63568 -4.80207,-3.93235 -2.31053,-0.34394 -4.77231,0.45505 -6.86369,1.80956 -1.0183,0.66308 -2.11759,1.56018 -3.18709,2.35562 l -3.21688,2.45964 c -4.27922,3.29055 -8.51797,6.63665 -12.75075,9.99929 -4.23755,3.35437 -8.45604,6.74774 -12.82222,9.98037 -4.36498,3.22553 -8.89909,6.2856 -13.73451,8.83506 -4.83542,2.54829 -9.96264,4.51623 -15.20539,5.98421 -10.5117,2.91823 -21.33661,4.18764 -32.12223,5.22421"
         style="fill:#161716;fill-opacity:1;fill-rule:nonzero;stroke:none;stroke-width:0.118646" />
      <path
         id="path11"
         d="M 196.57404,187.49777 C 147.0806,206.05318 95.588436,191.22682 81.561175,154.38193 67.535464,117.53823 96.285762,72.62537 145.77896,54.06996 c 8.68638,-3.25745 19.71258,-8.758238 29.1107,-11.58546 39.06571,-11.753295 74.33573,14.32167 85.90145,44.70011 11.61455,30.51318 2.02826,66.56025 -32.51764,88.58704 -7.16858,4.5706 -23.19575,8.53722 -31.69943,11.72612"
         style="fill:#ffffff;fill-opacity:1;fill-rule:nonzero;stroke:none;stroke-width:0.118646" />
      <path
         id="path12"
         d="M 219.9008,179.15676 C 170.40795,197.71453 118.91602,182.88817 104.88937,146.04328 90.863058,109.1984 119.61383,64.28672 169.1062,45.730132 218.59905,27.17354 270.09156,41.999902 284.11787,78.84478 c 14.02631,36.84489 -14.72423,81.75657 -64.21707,100.31198"
         style="fill:#ffffff;fill-opacity:1;fill-rule:nonzero;stroke:none;stroke-width:0.118646" />
      <path
         id="path13"
         d="m 260.10272,146.00191 c -28.716,10.76638 -60.79059,-3.60848 -71.63933,-32.10644 -10.84875,-28.49914 3.63609,-60.32902 32.35209,-71.096571 28.716,-10.766369 60.79059,3.608489 71.63933,32.106451 10.84994,28.49914 -3.6349,60.32902 -32.35209,71.09656"
         style="fill:#7b5b3d;fill-opacity:1;fill-rule:nonzero;stroke:none;stroke-width:0.118646" />
      <path
         id="path14"
         d="m 235.19074,65.89536 c -0.39778,2.07786 -0.63836,4.09427 -0.68362,6.06694 -0.0167,1.96676 0.18818,3.89097 0.81702,5.65325 0.57287,1.77412 1.55901,3.40875 2.92388,4.79044 0.60979,0.76709 1.43872,1.32379 2.18905,2.01286 0.78724,0.64417 1.6781,1.15713 2.51299,1.85685 -1.03021,-0.2163 -2.09258,-0.4657 -3.10016,-0.86401 -0.95398,-0.49642 -2.00681,-0.8971 -2.83694,-1.64882 -0.94445,-0.61815 -1.64714,-1.5058 -2.38317,-2.37335 -0.6086,-0.95028 -1.20409,-1.94076 -1.54233,-3.02579 -0.71341,-2.15469 -0.81941,-4.45004 -0.40613,-6.58936 0.4097,-2.1346 1.21124,-4.17819 2.50941,-5.87901"
         style="fill:#502d16;fill-opacity:1;fill-rule:nonzero;stroke:none;stroke-width:0.118646" />
      <path
         id="path15"
         d="m 230.27314,64.90015 c 0.44424,0.87819 1.03378,1.67128 1.71384,2.31899 0.68482,0.64652 1.49469,1.10394 2.31052,1.26468 l -0.45495,1.32969 c -1.04927,-0.49169 -1.84009,-1.28477 -2.40104,-2.1476 -0.55858,-0.86873 -0.94446,-1.80483 -1.16837,-2.76576"
         style="fill:#502d16;fill-opacity:1;fill-rule:nonzero;stroke:none;stroke-width:0.118646" />
      <path
         id="path16"
         d="m 228.23774,68.49919 c 0.68243,0.84982 1.55186,1.52117 2.48917,1.9774 0.93493,0.46687 1.95442,0.6808 2.94532,0.69616 l -0.17388,1.39471 c -2.35816,-0.52833 -4.29234,-2.11687 -5.26061,-4.06827"
         style="fill:#502d16;fill-opacity:1;fill-rule:nonzero;stroke:none;stroke-width:0.118646" />
      <path
         id="path17"
         d="m 255.77108,119.95295 c -2.10806,-0.42195 -4.07081,-1.43015 -5.80013,-2.76221 -1.73527,-1.33442 -3.18471,-3.12625 -4.08629,-5.21121 -0.46925,-1.03657 -0.68124,-2.16888 -0.85989,-3.2799 -0.0238,-1.13468 -0.0893,-2.26225 0.20723,-3.34492 0.12267,-1.10985 0.64432,-2.1015 1.02902,-3.10025 0.49187,-0.95975 1.1231,-1.84266 1.75194,-2.68184 -0.16197,1.0732 -0.48711,2.04241 -0.65028,3.04233 -0.10243,1.00938 -0.35372,1.97149 -0.30013,2.9466 -0.10243,1.9313 0.24654,3.80469 0.99805,5.51379 0.70388,1.73273 1.83175,3.31063 3.15375,4.77626 1.3482,1.44906 2.87386,2.80357 4.55673,4.10135"
         style="fill:#502d16;fill-opacity:1;fill-rule:nonzero;stroke:none;stroke-width:0.118646" />
      <path
         id="path18"
         d="m 252.74477,123.92667 c -0.47282,-0.86756 -0.8063,-1.82257 -0.96828,-2.84023 -0.15363,-1.01529 -0.0882,-2.12987 0.37159,-3.18653 l 1.22792,0.69853 c -0.50618,0.65598 -0.80868,1.52945 -0.89086,2.46436 -0.0798,0.93375 0.007,1.91476 0.25963,2.86387"
         style="fill:#502d16;fill-opacity:1;fill-rule:nonzero;stroke:none;stroke-width:0.118646" />
      <path
         id="path19"
         d="m 248.82046,122.56269 c -0.57525,-2.09914 -0.18341,-4.55995 1.23386,-6.50308 l 1.05999,0.93138 c -0.73246,0.6619 -1.35416,1.49044 -1.74362,2.45491 -0.40136,0.95737 -0.60621,2.03177 -0.55023,3.11679"
         style="fill:#502d16;fill-opacity:1;fill-rule:nonzero;stroke:none;stroke-width:0.118646" />
      <path
         id="path22"
         d="m 223.57143,124.30725 c -7.32816,2.74685 -20.21351,-3.31891 -24.69282,-15.08403 -4.47813,-11.76393 1.14693,-24.77128 8.47271,-27.51694 3.95886,-1.48453 9.20637,-0.65598 12.68168,3.46784 3.90526,4.6356 2.27479,9.08328 4.33402,14.49305 2.18547,5.74191 6.33131,9.88464 6.27295,14.54151 -0.0619,4.99964 -3.3181,8.69206 -7.06854,10.09857"
         style="fill:#9c6000;fill-opacity:1;fill-rule:nonzero;stroke:none;stroke-width:0.118646" />
      <path
         id="path23"
         d="m 221.37762,88.79561 c -0.40374,-1.06021 -0.9909,-2.10505 -1.88771,-3.17117 -3.41457,-4.05172 -8.43103,-4.55878 -11.88848,-3.26218 -7.165,2.68775 -12.29342,15.49535 -8.06063,26.61275 4.23159,11.1186 16.61314,17.36283 23.77933,14.67508 3.01083,-1.12876 6.54927,-4.28101 6.61239,-9.45086 0.031,-2.64402 -1.41371,-5.15566 -3.08943,-8.06325 -1.11358,-1.93131 -2.26527,-3.92762 -3.13707,-6.2206 -0.84084,-2.2067 -1.0838,-4.22074 -1.32082,-6.16977 -0.2108,-1.75638 -0.40612,-3.36974 -1.00758,-4.95 z m -23.16121,20.67582 c -4.62937,-12.16225 1.07547,-25.49463 8.8848,-28.42231 3.92552,-1.47271 9.61488,-0.90656 13.47369,3.67468 2.50585,2.97496 2.85004,5.82937 3.21687,8.85515 0.22509,1.86394 0.45853,3.79288 1.23743,5.84001 0.8337,2.19015 1.95681,4.13564 3.0418,6.01849 1.70431,2.95604 3.31453,5.74899 3.27761,8.77951 -0.0607,4.83771 -3.0144,9.05609 -7.52826,10.74746 -7.81052,2.92886 -20.97336,-3.32955 -25.60394,-15.49299"
         style="fill:#9c6000;fill-opacity:1;fill-rule:nonzero;stroke:none;stroke-width:0.118646" />
      <path
         id="path24"
         d="m 220.42007,114.71574 c -4.0851,1.5318 -11.26797,-1.85093 -13.76429,-8.4072 -2.49512,-6.55863 0.64076,-13.8087 4.72347,-15.33933 2.20691,-0.82736 5.13199,-0.36522 7.06854,1.93249 2.17713,2.58492 1.26841,5.06346 2.41652,8.0798 1.21839,3.19953 3.52772,5.50906 3.49675,8.10462 -0.0357,2.78822 -1.8508,4.84599 -3.94099,5.62962"
         style="fill:#c88c00;fill-opacity:1;fill-rule:nonzero;stroke:none;stroke-width:0.118646" />
      <path
         id="path25"
         d="m 200.11843,108.75872 c -2.12949,-5.59535 0.72532,-11.86795 6.36347,-13.98127 2.42724,-0.9101 5.10578,-0.93374 7.54374,-0.0674 1.10524,0.39241 1.67811,1.59799 1.2827,2.69366 -0.39422,1.09567 -1.61023,1.66655 -2.71428,1.27414 -1.48873,-0.52951 -3.12635,-0.51415 -4.61032,0.0414 -3.44911,1.29305 -5.19511,5.12847 -3.89216,8.55021 1.30294,3.42174 5.16771,5.1533 8.61563,3.86142 1.60188,-0.60042 2.89768,-1.77292 3.64682,-3.29999 0.51451,-1.04602 1.7841,-1.48098 2.83932,-0.97156 1.05403,0.5106 1.4935,1.77292 0.97781,2.81658 -1.22435,2.49864 -3.34312,4.41576 -5.9633,5.39795 -5.63697,2.11333 -11.95875,-0.7198 -14.08943,-6.31515"
         style="fill:#844800;fill-opacity:1;fill-rule:nonzero;stroke:none;stroke-width:0.118646" />
      <path
         id="path26"
         d="m 298.29186,73.52956 0.025,-0.008 c -0.16675,-0.45741 -0.35134,-0.88883 -0.52285,-1.33797 -0.17031,-0.45032 -0.32038,-0.89355 -0.49903,-1.34742 l -0.025,0.0106 C 265.7111,-7.6159341 157.46902,50.31609 157.46902,50.31609 253.11279,21.41745 278.18078,76.75746 278.91681,78.89679 l 0.13935,0.31204 0.0107,0.0319 0.27154,0.71507 c 0.873,2.08851 21.2068,60.77934 -69.79805,101.86151 0,0 117.35316,-28.7178 88.75149,-108.28776"
         style="fill:#ffffff;fill-opacity:1;fill-rule:nonzero;stroke:none;stroke-width:0.118646" />
      <path
         id="path27"
         d="m 262.03332,154.43985 c -5.21179,1.95494 -11.03216,-0.65362 -13.00206,-5.82583 -1.96752,-5.17221 0.661,-10.94957 5.87278,-12.90333 5.21178,-1.95494 11.03335,0.6548 13.00206,5.827 1.96751,5.17221 -0.661,10.9484 -5.87278,12.90216"
         style="fill:#7b5b3d;fill-opacity:1;fill-rule:nonzero;stroke:none;stroke-width:0.118646" />
      <path
         id="path28"
         d="m 222.73417,54.04041 c -5.21178,1.95376 -11.03215,-0.6548 -13.00206,-5.827005 -1.96871,-5.172207 0.65981,-10.949571 5.8716,-12.903332 5.21177,-1.953761 11.03333,0.6548 13.00204,5.827006 1.96871,5.173389 -0.6598,10.949571 -5.87158,12.903331"
         style="fill:#7b5b3d;fill-opacity:1;fill-rule:nonzero;stroke:none;stroke-width:0.118646" />
      <path
         id="path29"
         d="m 185.26319,179.55389 c -1.58878,-3.02815 -3.15136,-6.06813 -4.6544,-9.1341 -0.7527,-1.53299 -1.48635,-3.07306 -2.18666,-4.62378 -0.71339,-1.54244 -1.31247,-3.14635 -1.96989,-4.71834 -1.33391,-3.13807 -2.45583,-6.36007 -3.64087,-9.55251 -1.07785,-3.23026 -2.18189,-6.45107 -3.10967,-9.72625 -1.91274,-6.5279 -3.52415,-13.13973 -4.74968,-19.81773 -2.432,-13.35602 -3.45864,-26.9437 -2.95247,-40.44982 0.27512,-6.75129 0.9123,-13.48368 1.98182,-20.13214 0.52641,-3.32482 1.17431,-6.62718 1.93655,-9.89291 0.38588,-1.63109 0.79439,-3.256264 1.24815,-4.860168 0.14768,-0.530696 0.3049,-1.0673 0.46449,-1.602723 l -5.8561,2.281161 c -0.23582,1.050753 -0.4633,2.10269 -0.6753,3.15462 -0.67529,3.41465 -1.22791,6.84112 -1.6531,10.27941 -0.86823,6.87539 -1.28507,13.78624 -1.3339,20.68882 -0.05,13.80989 1.46849,27.58077 4.38761,41.01953 1.46849,6.71937 3.32405,13.34538 5.47498,19.86382 1.04808,3.27045 2.27123,6.47944 3.46579,9.69317 1.30176,3.17589 2.5392,6.37424 3.98625,9.48513 2.69998,6.31516 6.04786,12.31591 9.35762,18.30011 1.84366,3.28936 3.72066,6.561 5.62268,9.81726 l 0.237,-0.0769 c -1.82222,-3.31656 -3.61942,-6.64729 -5.3809,-9.99574"
         style="fill:#bcbbb9;fill-opacity:1;fill-rule:nonzero;stroke:none;stroke-width:0.118646" />
      <path
         id="path30"
         d="m 172.18849,188.12066 c -2.6321,-1.65828 -5.21654,-3.4052 -7.77361,-5.19586 -5.0903,-3.61557 -10.021,-7.4699 -14.77425,-11.53699 -9.49935,-8.14363 -18.33507,-17.09334 -26.29935,-26.77468 -8.01632,-9.64352 -15.11202,-20.04703 -21.35877,-30.93987 -3.601794,-6.38843 -6.88631,-12.95888 -9.854023,-19.6759 l -0.374091,0.53661 c 2.704861,6.71819 5.725692,13.3182 9.068804,19.76218 5.89589,11.16823 12.68454,21.90978 20.44968,31.94098 7.71406,10.0702 16.35338,19.45841 25.73244,28.07955 4.69453,4.30701 9.58475,8.41192 14.66552,12.29226 2.55468,1.92303 5.1427,3.80706 7.79742,5.60953 0.87419,0.59097 1.74838,1.16777 2.62733,1.73865 l 7.61281,-1.45971 c -2.48559,-1.30605 -5.05576,-2.82841 -7.51991,-4.37675"
         style="fill:#bcbbb9;fill-opacity:1;fill-rule:nonzero;stroke:none;stroke-width:0.118646" />
      <path
         id="path31"
         d="m 91.082677,95.49608 0.671719,-0.96211 -0.006,-0.0153 c -0.206637,0.29785 -0.432688,0.62643 -0.665764,0.97747"
         style="fill:#bcbbb9;fill-opacity:1;fill-rule:nonzero;stroke:none;stroke-width:0.118646" />
      <path
         id="path32"
         d="m 92.604407,93.31538 c 0,0 -0.191154,0.26003 -0.481518,0.66899 l 0.0056,0.013 0.475921,-0.68198"
         style="fill:#bcbbb9;fill-opacity:1;fill-rule:nonzero;stroke:none;stroke-width:0.118646" />
      <path
         id="path33"
         d="m 92.122889,93.98437 c -0.111596,0.15601 -0.239151,0.33921 -0.374448,0.53423 l 0.006,0.0153 0.37409,-0.53661 -0.0056,-0.013"
         style="fill:#bcbbb9;fill-opacity:1;fill-rule:nonzero;stroke:none;stroke-width:0.118646" />
      <path
         id="path34"
         d="m 180.81841,192.28584 -1.11001,0.21157 0.069,0.0379 c 0.3561,-0.084 0.70745,-0.16548 1.04093,-0.2494"
         style="fill:#bcbbb9;fill-opacity:1;fill-rule:nonzero;stroke:none;stroke-width:0.118646" />
      <path
         id="path35"
         d="m 172.14799,193.99139 -0.0524,-0.0343 -1.30295,0.25057 c 0,0 0.52523,-0.0804 1.35534,-0.2163"
         style="fill:#bcbbb9;fill-opacity:1;fill-rule:nonzero;stroke:none;stroke-width:0.118646" />
      <path
         id="path36"
         d="m 179.77749,192.53523 -0.0691,-0.0378 -7.61281,1.45971 0.0524,0.0343 c 1.77101,-0.28957 4.95572,-0.84037 7.6295,-1.45616"
         style="fill:#bcbbb9;fill-opacity:1;fill-rule:nonzero;stroke:none;stroke-width:0.118646" />
      <path
         id="path37"
         d="m 244.08745,48.312689 c 8.00228,2.263431 15.51386,6.349431 22,11.715471 3.25498,2.67948 6.16696,5.79155 8.69305,9.20265 2.50227,3.43002 4.52339,7.21935 6.01332,11.20488 1.45063,3.99971 2.36292,8.20272 2.60231,12.43291 0.24296,4.22193 0.0596,8.46985 -0.76819,12.58658 -1.48993,8.263 -4.64725,16.08513 -8.86336,23.18391 3.03108,-7.66848 5.43927,-15.53671 6.42064,-23.54559 0.30847,-1.99513 0.33348,-4.00681 0.46211,-6.00548 0.05,-1.00111 -0.0322,-2.00104 -0.0417,-2.99979 l -0.0369,-1.49752 -0.15959,-1.48571 c -0.13578,-0.98694 -0.15603,-1.98804 -0.3442,-2.96552 l -0.53476,-2.93359 C 279.0383,85.28286 278.55119,83.3551 277.81992,81.50653 275.139,74.02361 270.35002,67.36688 264.45104,61.85191 258.51276,56.35703 251.6062,51.78644 244.08746,48.312689"
         style="fill:#bcbbb9;fill-opacity:1;fill-rule:nonzero;stroke:none;stroke-width:0.118646" />
      <path
         id="path38"
         d="m 185.5002,86.11377 c -0.17031,4.79516 0.17507,9.54778 0.87538,14.22238 0.73603,4.66988 1.88534,9.25821 3.53724,13.66097 1.63762,4.40749 3.8076,8.60812 6.44207,12.52865 2.64758,3.91461 5.79894,7.4971 9.25997,10.85619 -4.01603,-2.67947 -7.61401,-6.04566 -10.59745,-9.90236 -1.51375,-1.91593 -2.80359,-3.9938 -4.02674,-6.10594 -1.15883,-2.14996 -2.17237,-4.37321 -3.0537,-6.64728 -1.67573,-4.58124 -2.77382,-9.3634 -3.18947,-14.1952 -0.40852,-4.82353 -0.28704,-9.71444 0.7527,-14.41741"
         style="fill:#bcbbb9;fill-opacity:1;fill-rule:nonzero;stroke:none;stroke-width:0.118646" />
      <path
         id="path39"
         d="m 271.30161,160.87319 c -10.20441,-7.13897 -26.87115,-2.85558 -41.09159,1.85093 -8.62397,2.85441 -30.34527,-1.70082 -37.67701,-5.05283 -14.28714,-6.53145 -34.35058,-18.07553 -60.39459,-21.6592 -34.001024,-4.67815 -45.853653,11.4188 -48.592933,29.7201 -2.739281,18.30128 22.602753,36.92879 56.603653,41.60695 19.50654,2.6842 37.62867,-0.74227 51.2155,-3.73378 23.68048,-5.21358 49.03074,-5.08238 72.85772,-18.32138 9.09203,-5.05047 15.56864,-18.47268 7.07925,-24.41079"
         style="fill:#6f5244;fill-opacity:1;fill-rule:nonzero;stroke:none;stroke-width:0.118646" />
      <path
         id="path40"
         d="m 104.35247,195.71822 c 5.33099,2.14523 10.63234,4.37202 16.05694,6.2135 5.42271,1.84384 10.98368,3.25036 16.62088,4.13682 5.64233,0.86283 11.34432,1.24814 17.0444,1.23514 5.70128,-0.0496 11.40018,-0.46687 17.05024,-1.25996 5.65245,-0.77772 11.26202,-1.86512 16.81799,-3.1818 2.74643,-0.65716 5.62625,-1.37697 8.48106,-1.89585 2.86075,-0.53897 5.73581,-0.94792 8.60491,-1.31906 11.47282,-1.4467 22.94802,-2.17123 33.93492,-4.82825 5.47618,-1.33561 10.79991,-3.19363 15.72943,-5.78564 2.46415,-1.29896 4.81517,-2.79058 7.04233,-4.44531 2.24263,-1.62281 4.26613,-3.47139 6.07525,-5.50788 1.79006,-2.03532 3.34669,-4.28575 4.32568,-6.67683 0.99566,-2.37572 1.29699,-4.92755 0.40136,-6.98649 -0.46448,-1.01885 -1.17551,-1.94195 -2.12116,-2.70194 -0.94802,-0.75291 -2.10924,-1.44435 -3.28356,-1.95849 -2.38675,-1.04129 -5.05219,-1.52353 -7.77122,-1.65118 -5.46546,-0.24466 -11.0786,0.78127 -16.61909,2.01759 -2.77739,0.62761 -5.5536,1.32496 -8.34409,2.02231 l -4.20063,1.03421 c -1.45539,0.28248 -2.90483,0.65361 -4.38404,0.8049 -2.94294,0.42077 -5.91922,0.51178 -8.86812,0.3664 -2.95008,-0.1371 -5.88112,-0.49996 -8.75617,-1.09921 -5.75487,-1.17367 -11.30251,-3.12034 -16.57027,-5.58943 l -0.0489,-0.0237 -0.0333,-0.0201 c -4.35546,-2.475 -8.85145,-4.80343 -13.37722,-7.01723 -4.53411,-2.20787 -9.10394,-4.35548 -13.76191,-6.30215 -4.65439,-1.95258 -9.38025,-3.74559 -14.199,-5.26321 -4.82042,-1.50226 -9.72159,-2.80122 -14.74424,-3.51748 5.04825,0.47632 10.05459,1.47388 14.94789,2.83194 4.90213,1.34152 9.72327,2.96433 14.4789,4.75262 4.75205,1.7942 9.45289,3.73378 14.07156,5.84828 4.61747,2.12751 9.16825,4.35193 13.66901,6.77257 l -0.0833,-0.0414 c 5.1832,2.28471 10.60102,4.03991 16.1439,5.0351 2.76667,0.51297 5.56788,0.79073 8.36314,0.85574 2.79526,0.0733 5.5917,-0.078 8.33217,-0.53779 10.94521,-2.02113 22.01786,-6.59645 34.1362,-6.32224 3.0156,0.13237 6.10979,0.6548 9.00747,1.90411 1.45302,0.63826 2.7905,1.40771 4.09345,2.43128 1.29222,1.02829 2.41056,2.40644 3.12278,3.99143 0.68601,1.59918 0.94206,3.35556 0.8051,5.00201 -0.11314,1.65709 -0.55142,3.2149 -1.13739,4.66633 -1.18385,2.9076 -2.94056,5.42397 -4.91165,7.68976 -8.13805,8.96271 -19.36314,14.04391 -30.71448,16.74939 -11.41685,2.74094 -23.03616,3.22672 -34.37202,4.55641 -2.83813,0.32622 -5.65959,0.71508 -8.45962,1.17841 -2.8155,0.44796 -5.53215,1.06139 -8.39053,1.676 -5.66078,1.20441 -11.37635,2.17597 -17.1348,2.8355 -11.49783,1.28359 -23.25649,1.36751 -34.64594,-0.9042 -5.68651,-1.11576 -11.25535,-2.75157 -16.63947,-4.81289 -5.40042,-2.03177 -10.57243,-4.54932 -15.7848,-6.95813"
         style="fill:#000000;fill-opacity:1;fill-rule:nonzero;stroke:none;stroke-width:0.118646" />
      <path
         id="path41"
         d="m 66.250026,125.84497 c 0,0 59.751924,-2.03886 102.589384,21.13324 L 81.808782,178.96528 66.250026,125.84497"
         style="fill:#6f5244;fill-opacity:1;fill-rule:nonzero;stroke:none;stroke-width:0.119;stroke-dasharray:none;opacity:1" />
    </g>
  </g>
</svg>
